{"accessors" : [{"bufferView" : 0, "byteOffset" : 0, "componentType" : 5123, "count" : 5274, "type" : "SCALAR", "max" : [1287], "min" : [0]}, {"bufferView" : 1, "byteOffset" : 0, "componentType" : 5126, "count" : 1288, "type" : "VEC3", "max" : [30.2518653869629, 84.6982574462891, 19.4128360748291], "min" : [-56.0498008728027, -0.131787002086639, -36.8984985351563]}, {"bufferView" : 1, "byteOffset" : 12, "componentType" : 5126, "count" : 1288, "type" : "VEC2", "max" : [1.0022200345993, -0.00197000009939075], "min" : [-0.0126759996637702, -0.99243301153183]}, {"bufferView" : 1, "byteOffset" : 20, "componentType" : 5126, "count" : 1288, "type" : "VEC3", "max" : [0.999909818172455, 0.999751269817352, 0.99928617477417], "min" : [-0.999913990497589, -1.00000441074371, -0.999102711677551]}, {"bufferView" : 0, "byteOffset" : 10548, "componentType" : 5123, "count" : 25818, "type" : "SCALAR", "max" : [17211], "min" : [0]}, {"bufferView" : 2, "byteOffset" : 0, "componentType" : 5126, "count" : 17212, "type" : "VEC3", "max" : [53.7743682861328, 105.048858642578, 31.3489398956299], "min" : [-72.4785003662109, 39.6921882629395, -52.6495170593262]}, {"bufferView" : 2, "byteOffset" : 12, "componentType" : 5126, "count" : 17212, "type" : "VEC2", "max" : [1, 0], "min" : [0, -1]}, {"bufferView" : 2, "byteOffset" : 20, "componentType" : 5126, "count" : 17212, "type" : "VEC3", "max" : [0.999005556106567, 0.996087670326233, 0.999973177909851], "min" : [-0.999877452850342, -0.999940752983093, -0.99951183795929]}], "asset" : {"generator" : "Aspose.3D 20.2.1", "version" : "2.0"}, "buffers" : [{"uri" : "buffer.bin", "byteLength" : 654196}], "bufferViews" : [{"buffer" : 0, "byteOffset" : 0, "byteLength" : 62184, "target" : 34963}, {"buffer" : 0, "byteOffset" : 62188, "byteLength" : 41216, "byteStride" : 32, "target" : 34962}, {"buffer" : 0, "byteOffset" : 103408, "byteLength" : 550784, "byteStride" : 32, "target" : 34962}], "meshes" : [{"primitives" : [{"attributes" : {"POSITION" : 1, "TEXCOORD_0" : 2, "NORMAL" : 3}, "indices" : 0, "mode" : 4}]}, {"primitives" : [{"attributes" : {"POSITION" : 5, "TEXCOORD_0" : 6, "NORMAL" : 7}, "indices" : 4, "mode" : 4}]}], "nodes" : [{"mesh" : 0, "name" : "tree_stem tree"}, {"mesh" : 1, "name" : "tree tree_leaves"}], "scene" : 0, "scenes" : [{"nodes" : [0, 1]}]}